<svg width="18" height="21" viewBox="0 0 18 21" fill="none" xmlns="http://www.w3.org/2000/svg">
    <path d="M14.6979 11.1566C14.7272 14.3346 17.4697 15.3922 17.5 15.4057C17.4768 15.4802 17.0618 16.9128 16.0552 18.3924C15.185 19.6718 14.2818 20.9463 12.8591 20.9727C11.4612 20.9986 11.0117 20.1389 9.41339 20.1389C7.81559 20.1389 7.31615 20.9463 5.9928 20.9986C4.61952 21.0509 3.57376 19.6153 2.6964 18.3407C0.903435 15.7335 -0.466724 10.9733 1.37306 7.76012C2.28701 6.16441 3.9204 5.15402 5.69318 5.1281C7.04169 5.10226 8.31456 6.04064 9.13893 6.04064C9.96276 6.04064 11.5096 4.91216 13.1357 5.07788C13.8163 5.1064 15.7272 5.3544 16.9542 7.16091C16.8553 7.22256 14.6741 8.49973 14.6979 11.1567M12.0706 3.35299C12.7998 2.4653 13.2904 1.22961 13.1566 0C12.1056 0.0424809 10.8349 0.704409 10.081 1.59157C9.40548 2.37726 8.81387 3.63473 8.97351 4.83996C10.1449 4.93113 11.3415 4.24121 12.0706 3.35299Z" fill="black"/>
</svg>
