<svg width="18" height="18" viewBox="0 0 18 18" fill="none" xmlns="http://www.w3.org/2000/svg"> <path d="M17.8313 9.19997C17.8313 8.45998 17.7723 7.91998 17.6447 7.35999H9.34253V10.7H14.2157C14.1175 11.53 13.5869 12.78 12.4079 13.6199L12.3914 13.7318L15.0164 15.8015L15.1982 15.82C16.8684 14.25 17.8313 11.94 17.8313 9.19997Z" fill="#4285F4"/> <path d="M9.34251 18C11.73 18 13.7342 17.2 15.1982 15.82L12.4079 13.62C11.6612 14.15 10.659 14.52 9.34251 14.52C7.00417 14.52 5.01953 12.95 4.31206 10.78L4.20837 10.789L1.47887 12.939L1.44318 13.04C2.89726 15.98 5.88407 18 9.34251 18Z" fill="#34A853"/> <path d="M4.31207 10.78C4.1254 10.22 4.01736 9.61993 4.01736 8.99996C4.01736 8.37992 4.1254 7.77994 4.30225 7.21995L4.2973 7.10068L1.5336 4.91614L1.44318 4.95991C0.843879 6.17993 0.5 7.54996 0.5 8.99996C0.5 10.45 0.843879 11.8199 1.44318 13.0399L4.31207 10.78Z" fill="#FBBC05"/> <path d="M9.34251 3.47998C11.0029 3.47998 12.1229 4.20998 12.7616 4.82002L15.2571 2.34C13.7245 0.890005 11.7299 0 9.34251 0C5.88407 0 2.89726 2.01999 1.44318 4.95997L4.30224 7.22C5.01953 5.05 7.00417 3.47998 9.34251 3.47998Z" fill="#EB4335"/> </svg>